HIERARCHY
ROOT hip
{
  OFFSET 0 0 0
  CHANNELS 6 Xposition Yposition Zposition Zrotation Yrotation Xrotation
  JOINT abdomen
  {
    OFFSET 0 20.6881 -0.73152
    CHANNELS 3 Zrotation Xrotation Yrotation
    JOINT chest
    {
      OFFSET 0 11.7043 -0.48768
      CHANNELS 3 Zrotation Xrotation Yrotation
      JOINT neck
      {
        OFFSET 0 22.1894 -2.19456
        CHANNELS 3 Zrotation Xrotation Yrotation
        JOINT head
        {
          OFFSET -0.24384 7.07133 1.2192
          CHANNELS 3 Zrotation Xrotation Yrotation
          JOINT leftEye
          {
            OFFSET 4.14528 8.04674 8.04672
            CHANNELS 3 Zrotation Xrotation Yrotation
            End Site
            {
              OFFSET 1 0 0
            }
          }
          JOINT rightEye
          {
            OFFSET -3.6576 8.04674 8.04672
            CHANNELS 3 Zrotation Xrotation Yrotation
            End Site
            {
              OFFSET 1 0 0
            }
          }
        }
      }
      JOINT rCollar
      {
        OFFSET -2.68224 19.2634 -4.8768
        CHANNELS 3 Zrotation Xrotation Yrotation
        JOINT rShldr
        {
          OFFSET -8.77824 -1.95073 1.46304
          CHANNELS 3 Zrotation Xrotation Yrotation
          JOINT rForeArm
          {
            OFFSET -28.1742 -1.7115 0.48768
            CHANNELS 3 Zrotation Xrotation Yrotation
            JOINT rHand
            {
              OFFSET -22.5879 0.773209 7.07136
              CHANNELS 3 Zrotation Xrotation Yrotation
              JOINT rThumb1
              {
                OFFSET -1.2192 -0.487915 3.41376
                CHANNELS 3 Zrotation Xrotation Yrotation
                JOINT rThumb2
                {
                  OFFSET -3.37035 -0.52449 3.41376
                  CHANNELS 3 Zrotation Xrotation Yrotation
                  End Site
                  {
                    OFFSET -1.78271 -1.18214 1.43049
                  }
                }
              }
              JOINT rIndex1
              {
                OFFSET -7.75947 0.938293 5.60832
                CHANNELS 3 Zrotation Xrotation Yrotation
                JOINT rIndex2
                {
                  OFFSET -2.54057 -0.884171 1.56538
                  CHANNELS 3 Zrotation Xrotation Yrotation
                  End Site
                  {
                    OFFSET -1.62519 -0.234802 1.16502
                  }
                }
              }
              JOINT rMid1
              {
                OFFSET -8.24714 1.18213 3.41376
                CHANNELS 3 Zrotation Xrotation Yrotation
                JOINT rMid2
                {
                  OFFSET -3.10165 -0.590103 1.0647
                  CHANNELS 3 Zrotation Xrotation Yrotation
                  End Site
                  {
                    OFFSET -2.48547 -0.328903 0.83742
                  }
                }
              }
              JOINT rRing1
              {
                OFFSET -8.82822 0.546677 1.51678
                CHANNELS 3 Zrotation Xrotation Yrotation
                JOINT rRing2
                {
                  OFFSET -2.60934 -0.819778 -0.0198488
                  CHANNELS 3 Zrotation Xrotation Yrotation
                  End Site
                  {
                    OFFSET -2.33842 -0.294052 0.168128
                  }
                }
              }
              JOINT rPinky1
              {
                OFFSET -8.27202 -0.0477905 -0.4584
                CHANNELS 3 Zrotation Xrotation Yrotation
                JOINT rPinky2
                {
                  OFFSET -1.82734 -0.647385 -0.700984
                  CHANNELS 3 Zrotation Xrotation Yrotation
                  End Site
                  {
                    OFFSET -1.69225 -0.51767 -0.607171
                  }
                }
              }
            }
          }
        }
      }
      JOINT lCollar
      {
        OFFSET 2.68224 19.2634 -4.8768
        CHANNELS 3 Zrotation Xrotation Yrotation
        JOINT lShldr
        {
          OFFSET 8.77824 -1.95073 1.46304
          CHANNELS 3 Zrotation Xrotation Yrotation
          JOINT lForeArm
          {
            OFFSET 28.1742 -1.7115 0.48768
            CHANNELS 3 Zrotation Xrotation Yrotation
            JOINT lHand
            {
              OFFSET 22.5879 0.773209 7.07136
              CHANNELS 3 Zrotation Xrotation Yrotation
              JOINT lThumb1
              {
                OFFSET 1.2192 -0.487915 3.41376
                CHANNELS 3 Zrotation Xrotation Yrotation
                JOINT lThumb2
                {
                  OFFSET 3.37035 -0.52449 3.41376
                  CHANNELS 3 Zrotation Xrotation Yrotation
                  End Site
                  {
                    OFFSET 1.78271 -1.18214 1.43049
                  }
                }
              }
              JOINT lIndex1
              {
                OFFSET 7.75947 0.938293 5.60832
                CHANNELS 3 Zrotation Xrotation Yrotation
                JOINT lIndex2
                {
                  OFFSET 2.54057 -0.884171 1.56538
                  CHANNELS 3 Zrotation Xrotation Yrotation
                  End Site
                  {
                    OFFSET 1.62519 -0.234802 1.16502
                  }
                }
              }
              JOINT lMid1
              {
                OFFSET 8.24714 1.18213 3.41376
                CHANNELS 3 Zrotation Xrotation Yrotation
                JOINT lMid2
                {
                  OFFSET 3.10165 -0.590103 1.0647
                  CHANNELS 3 Zrotation Xrotation Yrotation
                  End Site
                  {
                    OFFSET 2.48547 -0.328903 0.83742
                  }
                }
              }
              JOINT lRing1
              {
                OFFSET 8.82822 0.546677 1.51678
                CHANNELS 3 Zrotation Xrotation Yrotation
                JOINT lRing2
                {
                  OFFSET 2.60934 -0.819778 -0.0198488
                  CHANNELS 3 Zrotation Xrotation Yrotation
                  End Site
                  {
                    OFFSET 2.33842 -0.294052 0.168128
                  }
                }
              }
              JOINT lPinky1
              {
                OFFSET 8.27202 -0.0477905 -0.4584
                CHANNELS 3 Zrotation Xrotation Yrotation
                JOINT lPinky2
                {
                  OFFSET 1.82734 -0.647385 -0.700984
                  CHANNELS 3 Zrotation Xrotation Yrotation
                  End Site
                  {
                    OFFSET 1.69225 -0.51767 -0.607171
                  }
                }
              }
            }
          }
        }
      }
    }
  }
  JOINT rButtock
  {
    OFFSET -8.77824 4.35084 1.2192
    CHANNELS 3 Zrotation Xrotation Yrotation
    JOINT rThigh
    {
      OFFSET 0 -1.70687 -2.19456
      CHANNELS 3 Zrotation Xrotation Yrotation
      JOINT rShin
      {
        OFFSET 0 -36.8199 0.73152
        CHANNELS 3 Zrotation Xrotation Yrotation
        JOINT rFoot
        {
          OFFSET 0.73152 -45.1104 -5.12064
          CHANNELS 3 Zrotation Xrotation Yrotation
          End Site
          {
            OFFSET -1.1221 -3.69964 12.103
          }
        }
      }
    }
  }
  JOINT lButtock
  {
    OFFSET 8.77824 4.35084 1.2192
    CHANNELS 3 Zrotation Xrotation Yrotation
    JOINT lThigh
    {
      OFFSET 0 -1.70687 -2.19456
      CHANNELS 3 Zrotation Xrotation Yrotation
      JOINT lShin
      {
        OFFSET 0 -36.8199 0.73152
        CHANNELS 3 Zrotation Xrotation Yrotation
        JOINT lFoot
        {
          OFFSET -0.73152 -45.1104 -5.12064
          CHANNELS 3 Zrotation Xrotation Yrotation
          End Site
          {
            OFFSET 1.1221 -3.69964 12.103
          }
        }
      }
    }
  }
}
MOTION
Frames:	4
Frame Time:	0.00833333
2.86096 84.3737 -202.237 0.0 0.0 0.0 -1.03705 -0.00414422 -0.0286001 -0.285915 -0.00382758 -0.0495317 3.00099e-14 7.95139e-16 -2.48482e-17 8.96426e-14 9.54166e-15 -9.31803e-17 -0.0 0.0 0.0 -0.0 0.0 0.0 1.50076e-14 3.3972e-17 1.49089e-16 3.14131e-13 7.82715e-16 1.19271e-15 5.39417e-12 -1.58829e-12 -6.04305e-14 6.1725e-11 1.75025e-12 3.49861e-14 1.45601e-10 3.49386e-13 -6.36111e-14 2.51427e-10 6.07486e-13 -1.21656e-13 1.45603e-10 3.47476e-13 -7.63333e-14 7.73091 5.47488 0.417314 1.45599e-10 3.48668e-13 -6.36111e-14 2.90554 0.965183 0.102902 1.45606e-10 3.49563e-13 -6.99722e-14 10.2786 0.731801 0.0259123 1.4559e-10 3.54234e-13 -6.67917e-14 2.22167 -0.733487 -0.20892 1.48111e-14 3.18366e-17 -1.49089e-16 3.11825e-13 5.09386e-16 -1.98785e-16 5.39333e-12 1.63719e-12 -3.49861e-14 6.17294e-11 -1.48594e-12 1.90833e-14 1.45611e-10 3.28453e-13 -6.67917e-14 2.51485e-10 5.69319e-13 -1.20066e-13 1.45608e-10 3.26007e-13 -5.40694e-14 -7.73091 5.47488 -0.417314 1.45612e-10 3.27995e-13 -6.67917e-14 -2.90554 0.965183 -0.102902 1.45606e-10 3.28492e-13 -6.36111e-14 -10.2786 0.731801 -0.0259123 1.45621e-10 3.3038e-13 -7.31528e-14 -2.22167 -0.733487 0.20892 -2.03217e-16 0.0 -3.88251e-19 -0.272675 -1.9197 -0.0125432 -0.00938625 -2.07854 -0.0775914 -0.513438 3.99653 0.140485 2.03217e-16 0.0 3.88251e-19 -1.30478 -5.55697 0.114019 -0.000205644 4.50988 -0.0271301 0.527196 1.04552 -0.0815311
6.57282 82.665 -204.552 -18.7744 66.8231 -17.289 -2.55386 3.71025 -2.46956 0.610875 -1.71288 -0.759911 -0.297813 -0.0597561 -1.28027 2.89398 7.86893 -2.59832 -0.0 0.0 0.0 -0.0 0.0 0.0 -9.32626e-14 2.42726e-13 -1.51427e-13 14.233 14.906 0.953217 -14.8772 -12.0908 14.5057 0.0313251 -3.92841 -0.547427 3.96592e-10 -4.04134e-10 8.90558e-10 6.74454e-10 -7.08956e-10 1.54232e-09 3.96596e-10 -4.04138e-10 8.90549e-10 7.73091 5.47488 0.417314 3.96592e-10 -4.04137e-10 8.90559e-10 2.90554 0.965183 0.102902 3.96598e-10 -4.04136e-10 8.90554e-10 10.2786 0.731801 0.0259123 3.96584e-10 -4.04131e-10 8.90558e-10 2.22167 -0.733487 -0.20892 -9.34438e-14 2.42717e-13 -1.51696e-13 -17.0046 11.4296 -8.11564 12.6492 -9.64193 -13.7318 -0.0935955 -6.79516 0.930914 8.16299e-10 1.30378e-09 -4.77243e-10 1.41678e-09 2.23236e-09 -8.08729e-10 8.16294e-10 1.30378e-09 -4.77233e-10 -7.73091 5.47488 -0.417314 8.163e-10 1.30378e-09 -4.77246e-10 -2.90554 0.965183 -0.102902 8.16294e-10 1.30378e-09 -4.77242e-10 -10.2786 0.731801 -0.0259123 8.16307e-10 1.30378e-09 -4.7725e-10 -2.22167 -0.733487 0.20892 -2.03217e-16 0.0 -3.88251e-19 1.13439 -9.58483 -3.59877 0.0787684 12.5238 0.175589 -0.744974 -5.89361 -1.57124 2.03217e-16 0.0 3.88251e-19 2.29787 -8.93181 -1.23928 -0.00521273 16.8547 -0.212061 -0.367859 -8.52152 -3.71928
6.66483 82.8681 -202.505 -20.4107 67.6757 -18.6942 -3.79393 7.63302 -5.08802 1.50192 -3.52358 -1.51434 -0.603897 -0.134015 -2.62348 6.73507 16.1531 -5.49271 -0.0 0.0 0.0 -0.0 0.0 0.0 -2.11978e-13 5.20391e-13 -3.1021e-13 28.6023 30.6415 2.27472 -23.7845 -22.1898 31.7483 -0.0179731 -8.08906 -1.13601 6.62904e-10 -8.55145e-10 1.86681e-09 1.12284e-09 -1.49991e-09 3.23291e-09 6.62909e-10 -8.55151e-10 1.8668e-09 7.73091 5.47488 0.417314 6.62905e-10 -8.55151e-10 1.86681e-09 2.90554 0.965183 0.102902 6.6291e-10 -8.55149e-10 1.86681e-09 10.2786 0.731801 0.0259123 6.62898e-10 -8.55145e-10 1.86681e-09 2.22167 -0.733487 -0.20892 -2.12146e-13 5.20374e-13 -3.10449e-13 -31.2097 22.7424 -17.8045 21.021 -18.0095 -29.4386 0.0541842 -13.9728 1.9596 1.52511e-09 2.73606e-09 -1.02201e-09 2.64907e-09 4.68568e-09 -1.73321e-09 1.5251e-09 2.73606e-09 -1.022e-09 -7.73091 5.47488 -0.417314 1.52511e-09 2.73606e-09 -1.02201e-09 -2.90554 0.965183 -0.102902 1.5251e-09 2.73606e-09 -1.02201e-09 -10.2786 0.731801 -0.0259123 1.52511e-09 2.73606e-09 -1.02202e-09 -2.22167 -0.733487 0.20892 -2.03217e-16 0.0 -3.88251e-19 1.52183 -17.5866 -7.66811 0.0167171 27.9872 0.492574 -1.65801 -16.3286 -3.51217 2.03217e-16 0.0 3.88251e-19 5.91413 -12.4663 -2.69576 0.0900404 29.895 -0.447029 -2.74313 -18.5137 -8.01103
6.7671 83.0573 -200.493 -21.6917 68.5485 -19.7659 -4.62564 11.0569 -7.47548 2.27691 -5.12771 -2.18841 -0.901443 -0.17891 -3.84083 10.9783 23.4037 -8.41852 -0.0 0.0 0.0 -0.0 0.0 0.0 -3.09803e-13 7.2811e-13 -4.54578e-13 40.7009 44.6578 3.8864 -26.5809 -26.608 49.1187 -0.135318 -11.7809 -1.67369 8.98576e-10 -1.2131e-09 2.6718e-09 1.52051e-09 -2.12808e-09 4.6272e-09 8.98582e-10 -1.21311e-09 2.6718e-09 7.73091 5.47488 0.417314 8.98578e-10 -1.21311e-09 2.6718e-09 2.90554 0.965183 0.102902 8.98582e-10 -1.21311e-09 2.6718e-09 10.2786 0.731801 0.0259123 8.98573e-10 -1.2131e-09 2.67181e-09 2.22167 -0.733487 -0.20892 -3.09954e-13 7.28086e-13 -4.54791e-13 -40.2628 31.3093 -28.2596 24.5676 -22.1398 -44.6368 0.418896 -20.3632 2.95814 2.15767e-09 3.91068e-09 -1.4316e-09 3.74735e-09 6.69595e-09 -2.42595e-09 2.15767e-09 3.91068e-09 -1.43159e-09 -7.73091 5.47488 -0.417314 2.15767e-09 3.91068e-09 -1.4316e-09 -2.90554 0.965183 -0.102902 2.15767e-09 3.91068e-09 -1.4316e-09 -10.2786 0.731801 -0.0259123 2.15768e-09 3.91069e-09 -1.4316e-09 -2.22167 -0.733487 0.20892 -2.03217e-16 0.0 -3.88251e-19 0.84219 -24.5146 -11.6867 -0.233227 41.7253 0.896804 -3.1285 -25.577 -5.51051 2.03217e-16 0.0 3.88251e-19 9.00828 -15.6504 -4.0501 0.296145 41.5424 -0.741208 -6.15645 -27.17 -12.2395
